<svg width="128" height="128" viewBox="0 0 128 128" fill="none" xmlns="http://www.w3.org/2000/svg">
<g clip-path="url(#clip0_1181_11152)">
<rect width="128" height="128" rx="8" fill="#0C0C1D"/>
<g opacity="0.3" filter="url(#filter0_f_1181_11152)">
<ellipse cx="72.5" cy="67.5" rx="45.5" ry="43.5" fill="url(#paint0_linear_1181_11152)"/>
</g>
<g opacity="0.12">
<rect width="0.5" height="128" transform="translate(20.9167)" fill="white"/>
</g>
<g opacity="0.12">
<rect width="0.5" height="128" transform="translate(42.3333)" fill="white"/>
</g>
<g opacity="0.12">
<rect width="0.5" height="128" transform="translate(63.75)" fill="white"/>
</g>
<g opacity="0.12">
<rect width="0.5" height="128" transform="translate(85.1666)" fill="white"/>
</g>
<g opacity="0.12">
<rect width="0.5" height="128" transform="translate(106.583)" fill="white"/>
</g>
<g filter="url(#filter1_f_1181_11152)">
<rect x="105.75" y="17.7374" width="1.75" height="1.75" transform="rotate(-45 105.75 17.7374)" fill="white"/>
</g>
<rect x="106.75" y="-7.25" width="0.5" height="24" fill="url(#paint1_linear_1181_11152)"/>
<g opacity="0.12">
<rect width="128" height="0.5" transform="translate(-0.5 109.643)" fill="white"/>
</g>
<g opacity="0.12">
<rect width="128" height="0.5" transform="translate(-0.5 91.2858)" fill="white"/>
</g>
<g opacity="0.12">
<rect width="128" height="0.5" transform="translate(-0.5 72.9286)" fill="white"/>
</g>
<g opacity="0.12">
<rect width="128" height="0.5" transform="translate(-0.5 54.5714)" fill="white"/>
</g>
<g opacity="0.12">
<rect width="128" height="0.5" transform="translate(-0.5 36.2142)" fill="white"/>
</g>
<g opacity="0.12">
<rect width="128" height="0.5" transform="translate(-0.5 17.8572)" fill="white"/>
</g>
<g filter="url(#filter2_f_1181_11152)">
<rect x="20" y="41.4874" width="1.75" height="1.75" transform="rotate(-45 20 41.4874)" fill="white"/>
</g>
<g filter="url(#filter3_f_1181_11152)">
<rect x="90" y="109.987" width="1.75" height="1.75" transform="rotate(-45 90 109.987)" fill="white"/>
</g>
<rect x="21" y="-14.25" width="0.5" height="54.75" fill="url(#paint2_linear_1181_11152)"/>
<rect x="157.5" y="109.75" width="0.500003" height="65.75" transform="rotate(90 157.5 109.75)" fill="url(#paint3_linear_1181_11152)"/>
<path fill-rule="evenodd" clip-rule="evenodd" d="M100.506 41.5904C101.784 41.5904 102.82 40.5628 102.82 39.2952C102.82 38.0276 101.784 37 100.506 37C99.2285 37 98.1927 38.0276 98.1927 39.2952C98.1927 40.5628 99.2285 41.5904 100.506 41.5904ZM78.1083 50.7833H96.4797C97.7501 50.7833 98.7877 49.7504 98.7877 48.4864C98.7877 47.2223 97.7477 46.1918 96.4773 46.1918H70.2868C69.0164 46.1918 67.974 45.1588 67.974 43.8948C67.974 42.6307 69.0141 41.5978 70.2844 41.5978H91.1727C92.4407 41.5978 93.4831 40.5649 93.4831 39.3008C93.4831 38.0368 92.4407 37.0039 91.1704 37.0039H69.1494C68.7861 37.0039 68.4351 37.0029 68.0943 37.0019C65.2934 36.9937 63.1817 36.9875 60.6203 37.5699C46.6892 40.7347 37.7492 54.026 39.853 67.8337H38.7275H15.3151C14.7619 67.8337 14.2609 68.0342 13.8596 68.3596C13.3396 68.7794 13 69.4114 13 70.126C13 71.3877 14.0376 72.4206 15.3104 72.4206H17.9128H57.9608C59.2312 72.4206 60.2712 73.4512 60.2712 74.7152C60.2712 75.9769 59.2312 77.0098 57.9585 77.0098H40.1356C38.8629 77.0098 37.8228 78.0404 37.8228 79.3021C37.8228 80.5072 38.7726 81.4906 39.9646 81.5802H53.6013C53.6329 81.5802 53.6637 81.5838 53.6946 81.5874H53.6946C53.7195 81.5903 53.7445 81.5933 53.7699 81.5943C54.9595 81.6816 55.9093 82.6673 55.9093 83.8701C55.9093 85.1318 54.8693 86.1647 53.5965 86.1647H37.8157H32.7486C31.4759 86.1647 30.4358 87.1952 30.4358 88.4593C30.4358 89.721 31.4735 90.7539 32.7462 90.7539H65.7515C68.1141 90.7539 70.3651 90.6148 72.6969 90.0841C86.5852 86.9264 95.5157 73.7011 93.4807 59.9382H110.729C111.999 59.9382 113.039 58.9053 113.039 57.6436C113.039 56.3795 111.999 55.3466 110.727 55.3466H78.0585C76.7857 55.3466 75.7457 54.3137 75.7457 53.0496C75.7457 51.7856 76.8356 50.7833 78.1083 50.7833ZM20.7571 88.5071C20.7571 89.7747 19.7213 90.8023 18.4436 90.8023C17.1659 90.8023 16.1301 89.7747 16.1301 88.5071C16.1301 87.2395 17.1659 86.2119 18.4436 86.2119C19.7213 86.2119 20.7571 87.2395 20.7571 88.5071ZM22.7305 79.3263C22.7305 78.0587 23.7581 77.0311 25.0257 77.0311H32.8876C34.1552 77.0311 35.1828 78.0587 35.1828 79.3263C35.1828 80.5939 34.1552 81.6215 32.8876 81.6215H25.0257C23.7581 81.6215 22.7305 80.5939 22.7305 79.3263ZM104.843 46.1808C103.575 46.1808 102.548 47.2084 102.548 48.476C102.548 49.7436 103.575 50.7712 104.843 50.7712H112.705C113.972 50.7712 115 49.7436 115 48.476C115 47.2084 113.972 46.1808 112.705 46.1808H104.843Z" fill="url(#paint4_linear_1181_11152)"/>
</g>
<defs>
<filter id="filter0_f_1181_11152" x="-13" y="-16" width="171" height="167" filterUnits="userSpaceOnUse" color-interpolation-filters="sRGB">
<feFlood flood-opacity="0" result="BackgroundImageFix"/>
<feBlend mode="normal" in="SourceGraphic" in2="BackgroundImageFix" result="shape"/>
<feGaussianBlur stdDeviation="20" result="effect1_foregroundBlur_1181_11152"/>
</filter>
<filter id="filter1_f_1181_11152" x="105.25" y="16" width="3.47485" height="3.47485" filterUnits="userSpaceOnUse" color-interpolation-filters="sRGB">
<feFlood flood-opacity="0" result="BackgroundImageFix"/>
<feBlend mode="normal" in="SourceGraphic" in2="BackgroundImageFix" result="shape"/>
<feGaussianBlur stdDeviation="0.25" result="effect1_foregroundBlur_1181_11152"/>
</filter>
<filter id="filter2_f_1181_11152" x="19.5" y="39.75" width="3.47485" height="3.47485" filterUnits="userSpaceOnUse" color-interpolation-filters="sRGB">
<feFlood flood-opacity="0" result="BackgroundImageFix"/>
<feBlend mode="normal" in="SourceGraphic" in2="BackgroundImageFix" result="shape"/>
<feGaussianBlur stdDeviation="0.25" result="effect1_foregroundBlur_1181_11152"/>
</filter>
<filter id="filter3_f_1181_11152" x="89.5" y="108.25" width="3.47485" height="3.47485" filterUnits="userSpaceOnUse" color-interpolation-filters="sRGB">
<feFlood flood-opacity="0" result="BackgroundImageFix"/>
<feBlend mode="normal" in="SourceGraphic" in2="BackgroundImageFix" result="shape"/>
<feGaussianBlur stdDeviation="0.25" result="effect1_foregroundBlur_1181_11152"/>
</filter>
<linearGradient id="paint0_linear_1181_11152" x1="90.3544" y1="38.7231" x2="37.3967" y2="103.489" gradientUnits="userSpaceOnUse">
<stop stop-color="#00FFC2"/>
<stop offset="0.530275" stop-color="#00D1FF"/>
<stop offset="1" stop-color="#EB00FF"/>
</linearGradient>
<linearGradient id="paint1_linear_1181_11152" x1="107" y1="-7.25" x2="107" y2="16.75" gradientUnits="userSpaceOnUse">
<stop stop-color="#C957FF" stop-opacity="0"/>
<stop offset="0.422857" stop-color="#BB29FF" stop-opacity="0"/>
<stop offset="1" stop-color="white"/>
<stop offset="1" stop-color="#AD00FF" stop-opacity="0.7"/>
</linearGradient>
<linearGradient id="paint2_linear_1181_11152" x1="21.25" y1="-14.25" x2="21.25" y2="40.5" gradientUnits="userSpaceOnUse">
<stop stop-color="#C957FF" stop-opacity="0"/>
<stop offset="0.422857" stop-color="#BB29FF" stop-opacity="0"/>
<stop offset="1" stop-color="white"/>
<stop offset="1" stop-color="#AD00FF" stop-opacity="0.7"/>
</linearGradient>
<linearGradient id="paint3_linear_1181_11152" x1="157.75" y1="109.75" x2="157.75" y2="175.5" gradientUnits="userSpaceOnUse">
<stop stop-color="#C957FF" stop-opacity="0"/>
<stop offset="0.422857" stop-color="#BB29FF" stop-opacity="0"/>
<stop offset="1" stop-color="white"/>
<stop offset="1" stop-color="#AD00FF" stop-opacity="0.7"/>
</linearGradient>
<linearGradient id="paint4_linear_1181_11152" x1="115" y1="37" x2="19.8066" y2="94.6864" gradientUnits="userSpaceOnUse">
<stop stop-color="#40FFDD"/>
<stop offset="1" stop-color="#A258FF"/>
</linearGradient>
<clipPath id="clip0_1181_11152">
<rect width="128" height="128" rx="8" fill="white"/>
</clipPath>
</defs>
</svg>
